%TF.GenerationSoftware,KiCad,Pcbnew,(6.0.1-0)*%
%TF.CreationDate,2022-04-20T12:22:31-04:00*%
%TF.ProjectId,32S2_3,33325332-5f33-42e6-9b69-6361645f7063,rev?*%
%TF.SameCoordinates,Original*%
%TF.FileFunction,Soldermask,Top*%
%TF.FilePolarity,Negative*%
%FSLAX46Y46*%
G04 Gerber Fmt 4.6, Leading zero omitted, Abs format (unit mm)*
G04 Created by KiCad (PCBNEW (6.0.1-0)) date 2022-04-20 12:22:31*
%MOMM*%
%LPD*%
G01*
G04 APERTURE LIST*
G04 Aperture macros list*
%AMRoundRect*
0 Rectangle with rounded corners*
0 $1 Rounding radius*
0 $2 $3 $4 $5 $6 $7 $8 $9 X,Y pos of 4 corners*
0 Add a 4 corners polygon primitive as box body*
4,1,4,$2,$3,$4,$5,$6,$7,$8,$9,$2,$3,0*
0 Add four circle primitives for the rounded corners*
1,1,$1+$1,$2,$3*
1,1,$1+$1,$4,$5*
1,1,$1+$1,$6,$7*
1,1,$1+$1,$8,$9*
0 Add four rect primitives between the rounded corners*
20,1,$1+$1,$2,$3,$4,$5,0*
20,1,$1+$1,$4,$5,$6,$7,0*
20,1,$1+$1,$6,$7,$8,$9,0*
20,1,$1+$1,$8,$9,$2,$3,0*%
G04 Aperture macros list end*
%ADD10O,1.700000X1.700000*%
%ADD11R,1.700000X1.700000*%
%ADD12RoundRect,0.250000X0.337500X0.475000X-0.337500X0.475000X-0.337500X-0.475000X0.337500X-0.475000X0*%
%ADD13RoundRect,0.150000X0.512500X0.150000X-0.512500X0.150000X-0.512500X-0.150000X0.512500X-0.150000X0*%
%ADD14RoundRect,0.250000X-0.450000X0.350000X-0.450000X-0.350000X0.450000X-0.350000X0.450000X0.350000X0*%
%ADD15RoundRect,0.250000X-0.350000X-0.450000X0.350000X-0.450000X0.350000X0.450000X-0.350000X0.450000X0*%
%ADD16RoundRect,0.250000X0.350000X0.450000X-0.350000X0.450000X-0.350000X-0.450000X0.350000X-0.450000X0*%
%ADD17R,0.700000X0.510000*%
%ADD18RoundRect,0.250000X0.450000X-0.350000X0.450000X0.350000X-0.450000X0.350000X-0.450000X-0.350000X0*%
%ADD19R,1.500000X0.900000*%
%ADD20R,0.900000X1.500000*%
%ADD21R,1.500000X1.100000*%
%ADD22RoundRect,0.250000X-0.337500X-0.475000X0.337500X-0.475000X0.337500X0.475000X-0.337500X0.475000X0*%
%ADD23RoundRect,0.250000X0.275000X0.350000X-0.275000X0.350000X-0.275000X-0.350000X0.275000X-0.350000X0*%
G04 APERTURE END LIST*
D10*
%TO.C,J1*%
X104775000Y-93980000D03*
X104775000Y-91440000D03*
X104775000Y-88900000D03*
X104775000Y-86360000D03*
X104775000Y-83820000D03*
X104775000Y-81280000D03*
X104775000Y-78740000D03*
D11*
X104775000Y-76200000D03*
%TD*%
D12*
%TO.C,C1*%
X76602500Y-72390000D03*
X74527500Y-72390000D03*
%TD*%
D13*
%TO.C,U4*%
X76189000Y-91054000D03*
X76189000Y-90104000D03*
X76189000Y-89154000D03*
X73914000Y-89154000D03*
X73914000Y-91054000D03*
%TD*%
D14*
%TO.C,R2*%
X100076000Y-92980000D03*
X100076000Y-94980000D03*
%TD*%
D12*
%TO.C,C6*%
X76602500Y-78740000D03*
X74527500Y-78740000D03*
%TD*%
D15*
%TO.C,R6*%
X103156000Y-73025000D03*
X105156000Y-73025000D03*
%TD*%
D16*
%TO.C,R5*%
X76565000Y-81915000D03*
X74565000Y-81915000D03*
%TD*%
D17*
%TO.C,U1*%
X94852000Y-98618000D03*
X94852000Y-99568000D03*
X94852000Y-100518000D03*
X97172000Y-100518000D03*
X97172000Y-99568000D03*
X97172000Y-98618000D03*
%TD*%
D12*
%TO.C,C2*%
X76602500Y-75565000D03*
X74527500Y-75565000D03*
%TD*%
D18*
%TO.C,U2*%
X88392000Y-94980000D03*
X88392000Y-92980000D03*
%TD*%
D16*
%TO.C,R7*%
X105156000Y-71120000D03*
X103156000Y-71120000D03*
%TD*%
D19*
%TO.C,U3*%
X83200000Y-72582500D03*
X83200000Y-73852500D03*
X83200000Y-75122500D03*
X83200000Y-76392500D03*
X83200000Y-77662500D03*
X83200000Y-78932500D03*
X83200000Y-80202500D03*
X83200000Y-81472500D03*
X83200000Y-82742500D03*
X83200000Y-84012500D03*
X83200000Y-85282500D03*
X83200000Y-86552500D03*
X83200000Y-87822500D03*
X83200000Y-89092500D03*
D20*
X84965000Y-90592500D03*
X86235000Y-90592500D03*
X87505000Y-90592500D03*
X88775000Y-90592500D03*
X90045000Y-90592500D03*
X91315000Y-90592500D03*
X92585000Y-90592500D03*
X93855000Y-90592500D03*
X95125000Y-90592500D03*
X96395000Y-90616500D03*
X97665000Y-90592500D03*
X98935000Y-90592500D03*
D19*
X100700000Y-89092500D03*
X100700000Y-87822500D03*
X100700000Y-86552500D03*
X100700000Y-85282500D03*
X100700000Y-84012500D03*
X100700000Y-82742500D03*
X100700000Y-81472500D03*
X100700000Y-80202500D03*
X100700000Y-78932500D03*
X100700000Y-77662500D03*
X100700000Y-76392500D03*
X100700000Y-75122500D03*
X100700000Y-73852500D03*
X100700000Y-72582500D03*
%TD*%
D18*
%TO.C,R3*%
X92456000Y-94980000D03*
X92456000Y-92980000D03*
%TD*%
D21*
%TO.C,SW1*%
X80650000Y-101092000D03*
X71750000Y-101092000D03*
%TD*%
D14*
%TO.C,R4*%
X85344000Y-92980000D03*
X85344000Y-94980000D03*
%TD*%
D12*
%TO.C,C3*%
X76602500Y-93345000D03*
X74527500Y-93345000D03*
%TD*%
D18*
%TO.C,R1*%
X96520000Y-92980000D03*
X96520000Y-94980000D03*
%TD*%
D22*
%TO.C,C4*%
X74527500Y-86995000D03*
X76602500Y-86995000D03*
%TD*%
D23*
%TO.C,L1*%
X76715000Y-84455000D03*
X74415000Y-84455000D03*
%TD*%
M02*
