%TF.GenerationSoftware,KiCad,Pcbnew,(6.0.1-0)*%
%TF.CreationDate,2022-04-20T12:22:31-04:00*%
%TF.ProjectId,32S2_3,33325332-5f33-42e6-9b69-6361645f7063,rev?*%
%TF.SameCoordinates,Original*%
%TF.FileFunction,Copper,L2,Bot*%
%TF.FilePolarity,Positive*%
%FSLAX46Y46*%
G04 Gerber Fmt 4.6, Leading zero omitted, Abs format (unit mm)*
G04 Created by KiCad (PCBNEW (6.0.1-0)) date 2022-04-20 12:22:31*
%MOMM*%
%LPD*%
G01*
G04 APERTURE LIST*
%TA.AperFunction,ComponentPad*%
%ADD10O,1.700000X1.700000*%
%TD*%
%TA.AperFunction,ComponentPad*%
%ADD11R,1.700000X1.700000*%
%TD*%
%TA.AperFunction,ViaPad*%
%ADD12C,0.800000*%
%TD*%
%TA.AperFunction,Conductor*%
%ADD13C,0.250000*%
%TD*%
G04 APERTURE END LIST*
D10*
%TO.P,J1,8,Pin_8*%
%TO.N,GND*%
X104775000Y-93980000D03*
%TO.P,J1,7,Pin_7*%
%TO.N,/U0RXD*%
X104775000Y-91440000D03*
%TO.P,J1,6,Pin_6*%
%TO.N,/U0TXD*%
X104775000Y-88900000D03*
%TO.P,J1,5,Pin_5*%
%TO.N,/GPIO0*%
X104775000Y-86360000D03*
%TO.P,J1,4,Pin_4*%
%TO.N,/CHIP_PU*%
X104775000Y-83820000D03*
%TO.P,J1,3,Pin_3*%
%TO.N,/VCC_3V3*%
X104775000Y-81280000D03*
%TO.P,J1,2,Pin_2*%
%TO.N,/Vtherm*%
X104775000Y-78740000D03*
D11*
%TO.P,J1,1,Pin_1*%
%TO.N,VCC*%
X104775000Y-76200000D03*
%TD*%
D12*
%TO.N,/GPIO0*%
X101600000Y-90805000D03*
%TO.N,/Vtherm*%
X80010000Y-80010000D03*
%TO.N,GND*%
X77978000Y-91186000D03*
X107315000Y-70485000D03*
X80010000Y-93218000D03*
X80010000Y-72390000D03*
X78486000Y-87630000D03*
X85344000Y-96520000D03*
X72390000Y-75565000D03*
X93472000Y-98552000D03*
%TO.N,VCC*%
X73025000Y-81915000D03*
%TO.N,/CHIP_PU*%
X78740000Y-82550000D03*
%TO.N,/VBAT*%
X96520000Y-75184000D03*
X106680000Y-72136000D03*
%TO.N,Net-(SW1-Pad1A)*%
X78232000Y-89408000D03*
X83312000Y-100584000D03*
%TD*%
D13*
%TO.N,VCC*%
X78888894Y-76051106D02*
X98573894Y-76051106D01*
X99695000Y-74930000D02*
X104140000Y-74930000D01*
X98573894Y-76051106D02*
X99695000Y-74930000D01*
X104140000Y-74930000D02*
X104775000Y-75565000D01*
X104775000Y-75565000D02*
X104775000Y-76200000D01*
%TO.N,/CHIP_PU*%
X78740000Y-82550000D02*
X81280000Y-85090000D01*
X104775000Y-83820000D02*
X103505000Y-85090000D01*
X103505000Y-85090000D02*
X81280000Y-85090000D01*
%TO.N,/GPIO0*%
X101600000Y-89535000D02*
X101600000Y-90805000D01*
X104775000Y-86360000D02*
X101600000Y-89535000D01*
%TO.N,/Vtherm*%
X104775000Y-78740000D02*
X102870000Y-76835000D01*
X80010000Y-78105000D02*
X80010000Y-80010000D01*
X102870000Y-76835000D02*
X81280000Y-76835000D01*
X81280000Y-76835000D02*
X80010000Y-78105000D01*
%TO.N,VCC*%
X73025000Y-81915000D02*
X78888894Y-76051106D01*
%TO.N,/VBAT*%
X99568000Y-72136000D02*
X106680000Y-72136000D01*
X96520000Y-75184000D02*
X99568000Y-72136000D01*
%TO.N,Net-(SW1-Pad1A)*%
X83312000Y-94488000D02*
X83312000Y-100584000D01*
X78232000Y-89408000D02*
X83312000Y-94488000D01*
%TD*%
%TA.AperFunction,Conductor*%
%TO.N,GND*%
G36*
X81222121Y-69743002D02*
G01*
X81268614Y-69796658D01*
X81280000Y-69849000D01*
X81280000Y-72390000D01*
X98113906Y-72390000D01*
X98182027Y-72410002D01*
X98228520Y-72463658D01*
X98238624Y-72533932D01*
X98209130Y-72598512D01*
X98203006Y-72605090D01*
X96634125Y-74173970D01*
X96569500Y-74238595D01*
X96507188Y-74272621D01*
X96480405Y-74275500D01*
X96424513Y-74275500D01*
X96418061Y-74276872D01*
X96418056Y-74276872D01*
X96347922Y-74291780D01*
X96237712Y-74315206D01*
X96231682Y-74317891D01*
X96231681Y-74317891D01*
X96069278Y-74390197D01*
X96069276Y-74390198D01*
X96063248Y-74392882D01*
X95908747Y-74505134D01*
X95904326Y-74510044D01*
X95904325Y-74510045D01*
X95892677Y-74522982D01*
X95780960Y-74647056D01*
X95777659Y-74652774D01*
X95690005Y-74804595D01*
X95685473Y-74812444D01*
X95626458Y-74994072D01*
X95606496Y-75184000D01*
X95616422Y-75278437D01*
X95603650Y-75348273D01*
X95555148Y-75400120D01*
X95491112Y-75417606D01*
X78967657Y-75417606D01*
X78956473Y-75417079D01*
X78948985Y-75415405D01*
X78941062Y-75415654D01*
X78880927Y-75417544D01*
X78876969Y-75417606D01*
X78849038Y-75417606D01*
X78845123Y-75418101D01*
X78845119Y-75418101D01*
X78845061Y-75418109D01*
X78845032Y-75418112D01*
X78833190Y-75419045D01*
X78789004Y-75420433D01*
X78771638Y-75425478D01*
X78769552Y-75426084D01*
X78750200Y-75430092D01*
X78737962Y-75431638D01*
X78737960Y-75431639D01*
X78730097Y-75432632D01*
X78688980Y-75448912D01*
X78677779Y-75452747D01*
X78635300Y-75465088D01*
X78628481Y-75469121D01*
X78628476Y-75469123D01*
X78617865Y-75475399D01*
X78600115Y-75484096D01*
X78581277Y-75491554D01*
X78574861Y-75496215D01*
X78574860Y-75496216D01*
X78545519Y-75517534D01*
X78535595Y-75524053D01*
X78504354Y-75542528D01*
X78504349Y-75542532D01*
X78497531Y-75546564D01*
X78483207Y-75560888D01*
X78468175Y-75573727D01*
X78451787Y-75585634D01*
X78423606Y-75619699D01*
X78415616Y-75628479D01*
X73074500Y-80969595D01*
X73012188Y-81003621D01*
X72985405Y-81006500D01*
X72929513Y-81006500D01*
X72923061Y-81007872D01*
X72923056Y-81007872D01*
X72844501Y-81024570D01*
X72742712Y-81046206D01*
X72736682Y-81048891D01*
X72736681Y-81048891D01*
X72574278Y-81121197D01*
X72574276Y-81121198D01*
X72568248Y-81123882D01*
X72413747Y-81236134D01*
X72409326Y-81241044D01*
X72409325Y-81241045D01*
X72311305Y-81349908D01*
X72285960Y-81378056D01*
X72190473Y-81543444D01*
X72131458Y-81725072D01*
X72130768Y-81731633D01*
X72130768Y-81731635D01*
X72125007Y-81786453D01*
X72111496Y-81915000D01*
X72131458Y-82104928D01*
X72190473Y-82286556D01*
X72285960Y-82451944D01*
X72290378Y-82456851D01*
X72290379Y-82456852D01*
X72388589Y-82565925D01*
X72413747Y-82593866D01*
X72504809Y-82660027D01*
X72543036Y-82687800D01*
X72568248Y-82706118D01*
X72574276Y-82708802D01*
X72574278Y-82708803D01*
X72736681Y-82781109D01*
X72742712Y-82783794D01*
X72836112Y-82803647D01*
X72923056Y-82822128D01*
X72923061Y-82822128D01*
X72929513Y-82823500D01*
X73120487Y-82823500D01*
X73126939Y-82822128D01*
X73126944Y-82822128D01*
X73213888Y-82803647D01*
X73307288Y-82783794D01*
X73313319Y-82781109D01*
X73475722Y-82708803D01*
X73475724Y-82708802D01*
X73481752Y-82706118D01*
X73506965Y-82687800D01*
X73545191Y-82660027D01*
X73636253Y-82593866D01*
X73661411Y-82565925D01*
X73759621Y-82456852D01*
X73759622Y-82456851D01*
X73764040Y-82451944D01*
X73859527Y-82286556D01*
X73918542Y-82104928D01*
X73935907Y-81939706D01*
X73962920Y-81874050D01*
X73972122Y-81863782D01*
X79114393Y-76721511D01*
X79176705Y-76687485D01*
X79203488Y-76684606D01*
X80230299Y-76684606D01*
X80298420Y-76704608D01*
X80344913Y-76758264D01*
X80355017Y-76828538D01*
X80325523Y-76893118D01*
X80319394Y-76899701D01*
X79617747Y-77601348D01*
X79609461Y-77608888D01*
X79602982Y-77613000D01*
X79597557Y-77618777D01*
X79556357Y-77662651D01*
X79553602Y-77665493D01*
X79533865Y-77685230D01*
X79531385Y-77688427D01*
X79523682Y-77697447D01*
X79493414Y-77729679D01*
X79489595Y-77736625D01*
X79489593Y-77736628D01*
X79483652Y-77747434D01*
X79472801Y-77763953D01*
X79460386Y-77779959D01*
X79457241Y-77787228D01*
X79457238Y-77787232D01*
X79442826Y-77820537D01*
X79437609Y-77831187D01*
X79416305Y-77869940D01*
X79414334Y-77877615D01*
X79414334Y-77877616D01*
X79411267Y-77889562D01*
X79404863Y-77908266D01*
X79396819Y-77926855D01*
X79395580Y-77934678D01*
X79395577Y-77934688D01*
X79389901Y-77970524D01*
X79387495Y-77982144D01*
X79376500Y-78024970D01*
X79376500Y-78045224D01*
X79374949Y-78064934D01*
X79371780Y-78084943D01*
X79372526Y-78092835D01*
X79375941Y-78128961D01*
X79376500Y-78140819D01*
X79376500Y-79307476D01*
X79356498Y-79375597D01*
X79344142Y-79391779D01*
X79270960Y-79473056D01*
X79175473Y-79638444D01*
X79116458Y-79820072D01*
X79096496Y-80010000D01*
X79097186Y-80016565D01*
X79110381Y-80142104D01*
X79116458Y-80199928D01*
X79175473Y-80381556D01*
X79178776Y-80387278D01*
X79178777Y-80387279D01*
X79198903Y-80422138D01*
X79270960Y-80546944D01*
X79275378Y-80551851D01*
X79275379Y-80551852D01*
X79324746Y-80606680D01*
X79398747Y-80688866D01*
X79553248Y-80801118D01*
X79559276Y-80803802D01*
X79559278Y-80803803D01*
X79653426Y-80845720D01*
X79727712Y-80878794D01*
X79821112Y-80898647D01*
X79908056Y-80917128D01*
X79908061Y-80917128D01*
X79914513Y-80918500D01*
X80105487Y-80918500D01*
X80111939Y-80917128D01*
X80111944Y-80917128D01*
X80198888Y-80898647D01*
X80292288Y-80878794D01*
X80366574Y-80845720D01*
X80460722Y-80803803D01*
X80460724Y-80803802D01*
X80466752Y-80801118D01*
X80621253Y-80688866D01*
X80695254Y-80606680D01*
X80744621Y-80551852D01*
X80744622Y-80551851D01*
X80749040Y-80546944D01*
X80821097Y-80422138D01*
X80841223Y-80387279D01*
X80841224Y-80387278D01*
X80844527Y-80381556D01*
X80903542Y-80199928D01*
X80909620Y-80142104D01*
X80922814Y-80016565D01*
X80923504Y-80010000D01*
X80903542Y-79820072D01*
X80844527Y-79638444D01*
X80749040Y-79473056D01*
X80675863Y-79391785D01*
X80645147Y-79327779D01*
X80643500Y-79307476D01*
X80643500Y-78419594D01*
X80663502Y-78351473D01*
X80680405Y-78330499D01*
X81505499Y-77505405D01*
X81567811Y-77471379D01*
X81594594Y-77468500D01*
X102555406Y-77468500D01*
X102623527Y-77488502D01*
X102644501Y-77505405D01*
X103424778Y-78285682D01*
X103458804Y-78347994D01*
X103457100Y-78408448D01*
X103435989Y-78484570D01*
X103435441Y-78489700D01*
X103435440Y-78489704D01*
X103431933Y-78522522D01*
X103412251Y-78706695D01*
X103412548Y-78711848D01*
X103412548Y-78711851D01*
X103418011Y-78806590D01*
X103425110Y-78929715D01*
X103426247Y-78934761D01*
X103426248Y-78934767D01*
X103446119Y-79022939D01*
X103474222Y-79147639D01*
X103558266Y-79354616D01*
X103674987Y-79545088D01*
X103821250Y-79713938D01*
X103993126Y-79856632D01*
X104063595Y-79897811D01*
X104066445Y-79899476D01*
X104115169Y-79951114D01*
X104128240Y-80020897D01*
X104101509Y-80086669D01*
X104061055Y-80120027D01*
X104048607Y-80126507D01*
X104044474Y-80129610D01*
X104044471Y-80129612D01*
X103874100Y-80257530D01*
X103869965Y-80260635D01*
X103715629Y-80422138D01*
X103589743Y-80606680D01*
X103574003Y-80640590D01*
X103501290Y-80797237D01*
X103495688Y-80809305D01*
X103435989Y-81024570D01*
X103412251Y-81246695D01*
X103412548Y-81251848D01*
X103412548Y-81251851D01*
X103418011Y-81346590D01*
X103425110Y-81469715D01*
X103426247Y-81474761D01*
X103426248Y-81474767D01*
X103440436Y-81537721D01*
X103474222Y-81687639D01*
X103558266Y-81894616D01*
X103674987Y-82085088D01*
X103821250Y-82253938D01*
X103993126Y-82396632D01*
X104063595Y-82437811D01*
X104066445Y-82439476D01*
X104115169Y-82491114D01*
X104128240Y-82560897D01*
X104101509Y-82626669D01*
X104061055Y-82660027D01*
X104048607Y-82666507D01*
X104044474Y-82669610D01*
X104044471Y-82669612D01*
X103874100Y-82797530D01*
X103869965Y-82800635D01*
X103715629Y-82962138D01*
X103589743Y-83146680D01*
X103574003Y-83180590D01*
X103501290Y-83337237D01*
X103495688Y-83349305D01*
X103435989Y-83564570D01*
X103412251Y-83786695D01*
X103412548Y-83791848D01*
X103412548Y-83791851D01*
X103418011Y-83886590D01*
X103425110Y-84009715D01*
X103426247Y-84014761D01*
X103426248Y-84014767D01*
X103458453Y-84157668D01*
X103453917Y-84228520D01*
X103424631Y-84274464D01*
X103279500Y-84419595D01*
X103217188Y-84453621D01*
X103190405Y-84456500D01*
X81594595Y-84456500D01*
X81526474Y-84436498D01*
X81505500Y-84419595D01*
X79687122Y-82601217D01*
X79653096Y-82538905D01*
X79650907Y-82525292D01*
X79645676Y-82475516D01*
X79633542Y-82360072D01*
X79574527Y-82178444D01*
X79479040Y-82013056D01*
X79451147Y-81982077D01*
X79355675Y-81876045D01*
X79355674Y-81876044D01*
X79351253Y-81871134D01*
X79228311Y-81781811D01*
X79202094Y-81762763D01*
X79202093Y-81762762D01*
X79196752Y-81758882D01*
X79190724Y-81756198D01*
X79190722Y-81756197D01*
X79028319Y-81683891D01*
X79028318Y-81683891D01*
X79022288Y-81681206D01*
X78928888Y-81661353D01*
X78841944Y-81642872D01*
X78841939Y-81642872D01*
X78835487Y-81641500D01*
X78644513Y-81641500D01*
X78638061Y-81642872D01*
X78638056Y-81642872D01*
X78551112Y-81661353D01*
X78457712Y-81681206D01*
X78451682Y-81683891D01*
X78451681Y-81683891D01*
X78289278Y-81756197D01*
X78289276Y-81756198D01*
X78283248Y-81758882D01*
X78277907Y-81762762D01*
X78277906Y-81762763D01*
X78251689Y-81781811D01*
X78128747Y-81871134D01*
X78124326Y-81876044D01*
X78124325Y-81876045D01*
X78028854Y-81982077D01*
X78000960Y-82013056D01*
X77905473Y-82178444D01*
X77846458Y-82360072D01*
X77826496Y-82550000D01*
X77827186Y-82556565D01*
X77843187Y-82708803D01*
X77846458Y-82739928D01*
X77905473Y-82921556D01*
X77908776Y-82927278D01*
X77908777Y-82927279D01*
X77928903Y-82962138D01*
X78000960Y-83086944D01*
X78005378Y-83091851D01*
X78005379Y-83091852D01*
X78054746Y-83146680D01*
X78128747Y-83228866D01*
X78283248Y-83341118D01*
X78289276Y-83343802D01*
X78289278Y-83343803D01*
X78383426Y-83385720D01*
X78457712Y-83418794D01*
X78551112Y-83438647D01*
X78638056Y-83457128D01*
X78638061Y-83457128D01*
X78644513Y-83458500D01*
X78700406Y-83458500D01*
X78768527Y-83478502D01*
X78789501Y-83495405D01*
X80776343Y-85482247D01*
X80783887Y-85490537D01*
X80788000Y-85497018D01*
X80793777Y-85502443D01*
X80837667Y-85543658D01*
X80840509Y-85546413D01*
X80860230Y-85566134D01*
X80863425Y-85568612D01*
X80872447Y-85576318D01*
X80904679Y-85606586D01*
X80911628Y-85610406D01*
X80922432Y-85616346D01*
X80938956Y-85627199D01*
X80954959Y-85639613D01*
X80995543Y-85657176D01*
X81006173Y-85662383D01*
X81044940Y-85683695D01*
X81052617Y-85685666D01*
X81052622Y-85685668D01*
X81064558Y-85688732D01*
X81083266Y-85695137D01*
X81101855Y-85703181D01*
X81109680Y-85704420D01*
X81109682Y-85704421D01*
X81145519Y-85710097D01*
X81157140Y-85712504D01*
X81192289Y-85721528D01*
X81199970Y-85723500D01*
X81220231Y-85723500D01*
X81239940Y-85725051D01*
X81259943Y-85728219D01*
X81267835Y-85727473D01*
X81273062Y-85726979D01*
X81303954Y-85724059D01*
X81315811Y-85723500D01*
X103376527Y-85723500D01*
X103444648Y-85743502D01*
X103491141Y-85797158D01*
X103501245Y-85867432D01*
X103495745Y-85889182D01*
X103495688Y-85889305D01*
X103435989Y-86104570D01*
X103412251Y-86326695D01*
X103412548Y-86331848D01*
X103412548Y-86331851D01*
X103418011Y-86426590D01*
X103425110Y-86549715D01*
X103426247Y-86554761D01*
X103426248Y-86554767D01*
X103458453Y-86697668D01*
X103453917Y-86768520D01*
X103424631Y-86814464D01*
X101207747Y-89031348D01*
X101199461Y-89038888D01*
X101192982Y-89043000D01*
X101187557Y-89048777D01*
X101146357Y-89092651D01*
X101143602Y-89095493D01*
X101123865Y-89115230D01*
X101121385Y-89118427D01*
X101113682Y-89127447D01*
X101083414Y-89159679D01*
X101079595Y-89166625D01*
X101079593Y-89166628D01*
X101073652Y-89177434D01*
X101062801Y-89193953D01*
X101050386Y-89209959D01*
X101047241Y-89217228D01*
X101047238Y-89217232D01*
X101032826Y-89250537D01*
X101027609Y-89261187D01*
X101006305Y-89299940D01*
X101004334Y-89307615D01*
X101004334Y-89307616D01*
X101001267Y-89319562D01*
X100994863Y-89338266D01*
X100986819Y-89356855D01*
X100985580Y-89364678D01*
X100985577Y-89364688D01*
X100979901Y-89400524D01*
X100977495Y-89412144D01*
X100968472Y-89447289D01*
X100966500Y-89454970D01*
X100966500Y-89475224D01*
X100964949Y-89494934D01*
X100961780Y-89514943D01*
X100962526Y-89522835D01*
X100965941Y-89558961D01*
X100966500Y-89570819D01*
X100966500Y-90102476D01*
X100946498Y-90170597D01*
X100934142Y-90186779D01*
X100860960Y-90268056D01*
X100765473Y-90433444D01*
X100706458Y-90615072D01*
X100686496Y-90805000D01*
X100687186Y-90811565D01*
X100704290Y-90974297D01*
X100706458Y-90994928D01*
X100765473Y-91176556D01*
X100768776Y-91182278D01*
X100768777Y-91182279D01*
X100802686Y-91241010D01*
X100860960Y-91341944D01*
X100988747Y-91483866D01*
X101143248Y-91596118D01*
X101149276Y-91598802D01*
X101149278Y-91598803D01*
X101218708Y-91629715D01*
X101317712Y-91673794D01*
X101411113Y-91693647D01*
X101498056Y-91712128D01*
X101498061Y-91712128D01*
X101504513Y-91713500D01*
X101695487Y-91713500D01*
X101701939Y-91712128D01*
X101701944Y-91712128D01*
X101788887Y-91693647D01*
X101882288Y-91673794D01*
X101981292Y-91629715D01*
X102050722Y-91598803D01*
X102050724Y-91598802D01*
X102056752Y-91596118D01*
X102211253Y-91483866D01*
X102339040Y-91341944D01*
X102397314Y-91241010D01*
X102431223Y-91182279D01*
X102431224Y-91182278D01*
X102434527Y-91176556D01*
X102493542Y-90994928D01*
X102495711Y-90974297D01*
X102512814Y-90811565D01*
X102513504Y-90805000D01*
X102493542Y-90615072D01*
X102434527Y-90433444D01*
X102339040Y-90268056D01*
X102265863Y-90186785D01*
X102235147Y-90122779D01*
X102233500Y-90102476D01*
X102233500Y-89849594D01*
X102253502Y-89781473D01*
X102270405Y-89760499D01*
X103200019Y-88830885D01*
X103262331Y-88796859D01*
X103333146Y-88801924D01*
X103389982Y-88844471D01*
X103414905Y-88912727D01*
X103425110Y-89089715D01*
X103426247Y-89094761D01*
X103426248Y-89094767D01*
X103446119Y-89182939D01*
X103474222Y-89307639D01*
X103558266Y-89514616D01*
X103674987Y-89705088D01*
X103821250Y-89873938D01*
X103993126Y-90016632D01*
X104063595Y-90057811D01*
X104066445Y-90059476D01*
X104115169Y-90111114D01*
X104128240Y-90180897D01*
X104101509Y-90246669D01*
X104061055Y-90280027D01*
X104048607Y-90286507D01*
X104044474Y-90289610D01*
X104044471Y-90289612D01*
X103959507Y-90353405D01*
X103869965Y-90420635D01*
X103715629Y-90582138D01*
X103712715Y-90586410D01*
X103712714Y-90586411D01*
X103694838Y-90612617D01*
X103589743Y-90766680D01*
X103495688Y-90969305D01*
X103435989Y-91184570D01*
X103412251Y-91406695D01*
X103412548Y-91411848D01*
X103412548Y-91411851D01*
X103418011Y-91506590D01*
X103425110Y-91629715D01*
X103426247Y-91634761D01*
X103426248Y-91634767D01*
X103435353Y-91675166D01*
X103474222Y-91847639D01*
X103558266Y-92054616D01*
X103674987Y-92245088D01*
X103821250Y-92413938D01*
X103993126Y-92556632D01*
X104066955Y-92599774D01*
X104115679Y-92651412D01*
X104128750Y-92721195D01*
X104102019Y-92786967D01*
X104061562Y-92820327D01*
X104053457Y-92824546D01*
X104044738Y-92830036D01*
X103874433Y-92957905D01*
X103866726Y-92964748D01*
X103719590Y-93118717D01*
X103713104Y-93126727D01*
X103593098Y-93302649D01*
X103588000Y-93311623D01*
X103498338Y-93504783D01*
X103494775Y-93514470D01*
X103439389Y-93714183D01*
X103440912Y-93722607D01*
X103453292Y-93726000D01*
X106093344Y-93726000D01*
X106106875Y-93722027D01*
X106108180Y-93712947D01*
X106066214Y-93545875D01*
X106062894Y-93536124D01*
X105977972Y-93340814D01*
X105973105Y-93331739D01*
X105857426Y-93152926D01*
X105851136Y-93144757D01*
X105707806Y-92987240D01*
X105700273Y-92980215D01*
X105533139Y-92848222D01*
X105524556Y-92842520D01*
X105487602Y-92822120D01*
X105437631Y-92771687D01*
X105422859Y-92702245D01*
X105447975Y-92635839D01*
X105475327Y-92609232D01*
X105498797Y-92592491D01*
X105654860Y-92481173D01*
X105813096Y-92323489D01*
X105872594Y-92240689D01*
X105940435Y-92146277D01*
X105943453Y-92142077D01*
X106042430Y-91941811D01*
X106107370Y-91728069D01*
X106136529Y-91506590D01*
X106136611Y-91503240D01*
X106138074Y-91443365D01*
X106138074Y-91443361D01*
X106138156Y-91440000D01*
X106119852Y-91217361D01*
X106065431Y-91000702D01*
X105976354Y-90795840D01*
X105855014Y-90608277D01*
X105704670Y-90443051D01*
X105700619Y-90439852D01*
X105700615Y-90439848D01*
X105533414Y-90307800D01*
X105533410Y-90307798D01*
X105529359Y-90304598D01*
X105488053Y-90281796D01*
X105438084Y-90231364D01*
X105423312Y-90161921D01*
X105448428Y-90095516D01*
X105475780Y-90068909D01*
X105519603Y-90037650D01*
X105654860Y-89941173D01*
X105813096Y-89783489D01*
X105872594Y-89700689D01*
X105940435Y-89606277D01*
X105943453Y-89602077D01*
X105961840Y-89564875D01*
X106040136Y-89406453D01*
X106040137Y-89406451D01*
X106042430Y-89401811D01*
X106107370Y-89188069D01*
X106136529Y-88966590D01*
X106138156Y-88900000D01*
X106119852Y-88677361D01*
X106065431Y-88460702D01*
X105976354Y-88255840D01*
X105855014Y-88068277D01*
X105704670Y-87903051D01*
X105700619Y-87899852D01*
X105700615Y-87899848D01*
X105533414Y-87767800D01*
X105533410Y-87767798D01*
X105529359Y-87764598D01*
X105488053Y-87741796D01*
X105438084Y-87691364D01*
X105423312Y-87621921D01*
X105448428Y-87555516D01*
X105475780Y-87528909D01*
X105519603Y-87497650D01*
X105654860Y-87401173D01*
X105813096Y-87243489D01*
X105943453Y-87062077D01*
X106042430Y-86861811D01*
X106107370Y-86648069D01*
X106136529Y-86426590D01*
X106138156Y-86360000D01*
X106119852Y-86137361D01*
X106065431Y-85920702D01*
X105976354Y-85715840D01*
X105915079Y-85621123D01*
X105857822Y-85532617D01*
X105857820Y-85532614D01*
X105855014Y-85528277D01*
X105704670Y-85363051D01*
X105700619Y-85359852D01*
X105700615Y-85359848D01*
X105533414Y-85227800D01*
X105533410Y-85227798D01*
X105529359Y-85224598D01*
X105488053Y-85201796D01*
X105438084Y-85151364D01*
X105423312Y-85081921D01*
X105448428Y-85015516D01*
X105475780Y-84988909D01*
X105519603Y-84957650D01*
X105654860Y-84861173D01*
X105813096Y-84703489D01*
X105943453Y-84522077D01*
X105994103Y-84419595D01*
X106040136Y-84326453D01*
X106040137Y-84326451D01*
X106042430Y-84321811D01*
X106107370Y-84108069D01*
X106136529Y-83886590D01*
X106138156Y-83820000D01*
X106119852Y-83597361D01*
X106065431Y-83380702D01*
X105976354Y-83175840D01*
X105918845Y-83086944D01*
X105857822Y-82992617D01*
X105857820Y-82992614D01*
X105855014Y-82988277D01*
X105704670Y-82823051D01*
X105700619Y-82819852D01*
X105700615Y-82819848D01*
X105533414Y-82687800D01*
X105533410Y-82687798D01*
X105529359Y-82684598D01*
X105488053Y-82661796D01*
X105438084Y-82611364D01*
X105423312Y-82541921D01*
X105448428Y-82475516D01*
X105475780Y-82448909D01*
X105519603Y-82417650D01*
X105654860Y-82321173D01*
X105813096Y-82163489D01*
X105872594Y-82080689D01*
X105940435Y-81986277D01*
X105943453Y-81982077D01*
X105964394Y-81939707D01*
X106040136Y-81786453D01*
X106040137Y-81786451D01*
X106042430Y-81781811D01*
X106107370Y-81568069D01*
X106136529Y-81346590D01*
X106138156Y-81280000D01*
X106119852Y-81057361D01*
X106065431Y-80840702D01*
X105976354Y-80635840D01*
X105918845Y-80546944D01*
X105857822Y-80452617D01*
X105857820Y-80452614D01*
X105855014Y-80448277D01*
X105704670Y-80283051D01*
X105700619Y-80279852D01*
X105700615Y-80279848D01*
X105533414Y-80147800D01*
X105533410Y-80147798D01*
X105529359Y-80144598D01*
X105488053Y-80121796D01*
X105438084Y-80071364D01*
X105423312Y-80001921D01*
X105448428Y-79935516D01*
X105475780Y-79908909D01*
X105519603Y-79877650D01*
X105654860Y-79781173D01*
X105813096Y-79623489D01*
X105872594Y-79540689D01*
X105940435Y-79446277D01*
X105943453Y-79442077D01*
X105976310Y-79375597D01*
X106040136Y-79246453D01*
X106040137Y-79246451D01*
X106042430Y-79241811D01*
X106107370Y-79028069D01*
X106136529Y-78806590D01*
X106138156Y-78740000D01*
X106119852Y-78517361D01*
X106065431Y-78300702D01*
X105976354Y-78095840D01*
X105899078Y-77976389D01*
X105857822Y-77912617D01*
X105857820Y-77912614D01*
X105855014Y-77908277D01*
X105820130Y-77869940D01*
X105707798Y-77746488D01*
X105676746Y-77682642D01*
X105685141Y-77612143D01*
X105730317Y-77557375D01*
X105756761Y-77543706D01*
X105863297Y-77503767D01*
X105871705Y-77500615D01*
X105988261Y-77413261D01*
X106075615Y-77296705D01*
X106126745Y-77160316D01*
X106133500Y-77098134D01*
X106133500Y-75301866D01*
X106126745Y-75239684D01*
X106075615Y-75103295D01*
X105988261Y-74986739D01*
X105871705Y-74899385D01*
X105735316Y-74848255D01*
X105673134Y-74841500D01*
X104999595Y-74841500D01*
X104931474Y-74821498D01*
X104910499Y-74804595D01*
X104643647Y-74537742D01*
X104636113Y-74529463D01*
X104632000Y-74522982D01*
X104582348Y-74476356D01*
X104579507Y-74473602D01*
X104559770Y-74453865D01*
X104556573Y-74451385D01*
X104547551Y-74443680D01*
X104534116Y-74431064D01*
X104515321Y-74413414D01*
X104508375Y-74409595D01*
X104508372Y-74409593D01*
X104497566Y-74403652D01*
X104481047Y-74392801D01*
X104477690Y-74390197D01*
X104465041Y-74380386D01*
X104457772Y-74377241D01*
X104457768Y-74377238D01*
X104424463Y-74362826D01*
X104413813Y-74357609D01*
X104375060Y-74336305D01*
X104355437Y-74331267D01*
X104336734Y-74324863D01*
X104325420Y-74319967D01*
X104325419Y-74319967D01*
X104318145Y-74316819D01*
X104310322Y-74315580D01*
X104310312Y-74315577D01*
X104274476Y-74309901D01*
X104262856Y-74307495D01*
X104227711Y-74298472D01*
X104227710Y-74298472D01*
X104220030Y-74296500D01*
X104199776Y-74296500D01*
X104180065Y-74294949D01*
X104167886Y-74293020D01*
X104160057Y-74291780D01*
X104130786Y-74294547D01*
X104116039Y-74295941D01*
X104104181Y-74296500D01*
X99773767Y-74296500D01*
X99762584Y-74295973D01*
X99755091Y-74294298D01*
X99747165Y-74294547D01*
X99747164Y-74294547D01*
X99687014Y-74296438D01*
X99683055Y-74296500D01*
X99655144Y-74296500D01*
X99651210Y-74296997D01*
X99651209Y-74296997D01*
X99651144Y-74297005D01*
X99639307Y-74297938D01*
X99607490Y-74298938D01*
X99603029Y-74299078D01*
X99595110Y-74299327D01*
X99577454Y-74304456D01*
X99575658Y-74304978D01*
X99556306Y-74308986D01*
X99549235Y-74309880D01*
X99536203Y-74311526D01*
X99528834Y-74314443D01*
X99528832Y-74314444D01*
X99495097Y-74327800D01*
X99483869Y-74331645D01*
X99441407Y-74343982D01*
X99434585Y-74348016D01*
X99434579Y-74348019D01*
X99423968Y-74354294D01*
X99406218Y-74362990D01*
X99394756Y-74367528D01*
X99394751Y-74367531D01*
X99387383Y-74370448D01*
X99369970Y-74383099D01*
X99351625Y-74396427D01*
X99341707Y-74402943D01*
X99330463Y-74409593D01*
X99303637Y-74425458D01*
X99289313Y-74439782D01*
X99274281Y-74452621D01*
X99257893Y-74464528D01*
X99229712Y-74498593D01*
X99221722Y-74507373D01*
X98348394Y-75380701D01*
X98286082Y-75414727D01*
X98259299Y-75417606D01*
X97548888Y-75417606D01*
X97480767Y-75397604D01*
X97434274Y-75343948D01*
X97423578Y-75278437D01*
X97430907Y-75208705D01*
X97457920Y-75143049D01*
X97467122Y-75132782D01*
X99793500Y-72806405D01*
X99855812Y-72772379D01*
X99882595Y-72769500D01*
X105971800Y-72769500D01*
X106039921Y-72789502D01*
X106059147Y-72805843D01*
X106059420Y-72805540D01*
X106064332Y-72809963D01*
X106068747Y-72814866D01*
X106223248Y-72927118D01*
X106229276Y-72929802D01*
X106229278Y-72929803D01*
X106391681Y-73002109D01*
X106397712Y-73004794D01*
X106491112Y-73024647D01*
X106578056Y-73043128D01*
X106578061Y-73043128D01*
X106584513Y-73044500D01*
X106775487Y-73044500D01*
X106781939Y-73043128D01*
X106781944Y-73043128D01*
X106868888Y-73024647D01*
X106962288Y-73004794D01*
X106968319Y-73002109D01*
X107130722Y-72929803D01*
X107130724Y-72929802D01*
X107136752Y-72927118D01*
X107291253Y-72814866D01*
X107314091Y-72789502D01*
X107414621Y-72677852D01*
X107414622Y-72677851D01*
X107419040Y-72672944D01*
X107514527Y-72507556D01*
X107573542Y-72325928D01*
X107593504Y-72136000D01*
X107573542Y-71946072D01*
X107514527Y-71764444D01*
X107419040Y-71599056D01*
X107362254Y-71535988D01*
X107295675Y-71462045D01*
X107295674Y-71462044D01*
X107291253Y-71457134D01*
X107136752Y-71344882D01*
X107130724Y-71342198D01*
X107130722Y-71342197D01*
X106968319Y-71269891D01*
X106968318Y-71269891D01*
X106962288Y-71267206D01*
X106868887Y-71247353D01*
X106781944Y-71228872D01*
X106781939Y-71228872D01*
X106775487Y-71227500D01*
X106584513Y-71227500D01*
X106578061Y-71228872D01*
X106578056Y-71228872D01*
X106491113Y-71247353D01*
X106397712Y-71267206D01*
X106391682Y-71269891D01*
X106391681Y-71269891D01*
X106229278Y-71342197D01*
X106229276Y-71342198D01*
X106223248Y-71344882D01*
X106068747Y-71457134D01*
X106064332Y-71462037D01*
X106059420Y-71466460D01*
X106058295Y-71465211D01*
X106004986Y-71498051D01*
X105971800Y-71502500D01*
X102361000Y-71502500D01*
X102292879Y-71482498D01*
X102246386Y-71428842D01*
X102235000Y-71376500D01*
X102235000Y-69849000D01*
X102255002Y-69780879D01*
X102308658Y-69734386D01*
X102361000Y-69723000D01*
X107951000Y-69723000D01*
X108019121Y-69743002D01*
X108065614Y-69796658D01*
X108077000Y-69849000D01*
X108077000Y-103506000D01*
X108056998Y-103574121D01*
X108003342Y-103620614D01*
X107951000Y-103632000D01*
X70484000Y-103632000D01*
X70415879Y-103611998D01*
X70369386Y-103558342D01*
X70358000Y-103506000D01*
X70358000Y-89408000D01*
X77318496Y-89408000D01*
X77319186Y-89414565D01*
X77330566Y-89522835D01*
X77338458Y-89597928D01*
X77397473Y-89779556D01*
X77400776Y-89785278D01*
X77400777Y-89785279D01*
X77434686Y-89844010D01*
X77492960Y-89944944D01*
X77497378Y-89949851D01*
X77497379Y-89949852D01*
X77616325Y-90081955D01*
X77620747Y-90086866D01*
X77775248Y-90199118D01*
X77781276Y-90201802D01*
X77781278Y-90201803D01*
X77930086Y-90268056D01*
X77949712Y-90276794D01*
X78010016Y-90289612D01*
X78130056Y-90315128D01*
X78130061Y-90315128D01*
X78136513Y-90316500D01*
X78192406Y-90316500D01*
X78260527Y-90336502D01*
X78281501Y-90353405D01*
X82641595Y-94713500D01*
X82675621Y-94775812D01*
X82678500Y-94802595D01*
X82678500Y-99881476D01*
X82658498Y-99949597D01*
X82646142Y-99965779D01*
X82572960Y-100047056D01*
X82477473Y-100212444D01*
X82418458Y-100394072D01*
X82398496Y-100584000D01*
X82418458Y-100773928D01*
X82477473Y-100955556D01*
X82572960Y-101120944D01*
X82700747Y-101262866D01*
X82855248Y-101375118D01*
X82861276Y-101377802D01*
X82861278Y-101377803D01*
X83023681Y-101450109D01*
X83029712Y-101452794D01*
X83123112Y-101472647D01*
X83210056Y-101491128D01*
X83210061Y-101491128D01*
X83216513Y-101492500D01*
X83407487Y-101492500D01*
X83413939Y-101491128D01*
X83413944Y-101491128D01*
X83500888Y-101472647D01*
X83594288Y-101452794D01*
X83600319Y-101450109D01*
X83762722Y-101377803D01*
X83762724Y-101377802D01*
X83768752Y-101375118D01*
X83923253Y-101262866D01*
X84051040Y-101120944D01*
X84146527Y-100955556D01*
X84205542Y-100773928D01*
X84225504Y-100584000D01*
X84205542Y-100394072D01*
X84146527Y-100212444D01*
X84051040Y-100047056D01*
X83977863Y-99965785D01*
X83947147Y-99901779D01*
X83945500Y-99881476D01*
X83945500Y-94566767D01*
X83946027Y-94555584D01*
X83947702Y-94548091D01*
X83945562Y-94480000D01*
X83945500Y-94476043D01*
X83945500Y-94448144D01*
X83944996Y-94444153D01*
X83944063Y-94432311D01*
X83942923Y-94396036D01*
X83942674Y-94388111D01*
X83940462Y-94380497D01*
X83940461Y-94380492D01*
X83937023Y-94368659D01*
X83933012Y-94349295D01*
X83931467Y-94337064D01*
X83930474Y-94329203D01*
X83927557Y-94321836D01*
X83927556Y-94321831D01*
X83914198Y-94288092D01*
X83910354Y-94276865D01*
X83901957Y-94247966D01*
X103443257Y-94247966D01*
X103473565Y-94382446D01*
X103476645Y-94392275D01*
X103556770Y-94589603D01*
X103561413Y-94598794D01*
X103672694Y-94780388D01*
X103678777Y-94788699D01*
X103818213Y-94949667D01*
X103825580Y-94956883D01*
X103989434Y-95092916D01*
X103997881Y-95098831D01*
X104181756Y-95206279D01*
X104191042Y-95210729D01*
X104390001Y-95286703D01*
X104399899Y-95289579D01*
X104503250Y-95310606D01*
X104517299Y-95309410D01*
X104521000Y-95299065D01*
X104521000Y-95298517D01*
X105029000Y-95298517D01*
X105033064Y-95312359D01*
X105046478Y-95314393D01*
X105053184Y-95313534D01*
X105063262Y-95311392D01*
X105267255Y-95250191D01*
X105276842Y-95246433D01*
X105468095Y-95152739D01*
X105476945Y-95147464D01*
X105650328Y-95023792D01*
X105658200Y-95017139D01*
X105809052Y-94866812D01*
X105815730Y-94858965D01*
X105940003Y-94686020D01*
X105945313Y-94677183D01*
X106039670Y-94486267D01*
X106043469Y-94476672D01*
X106105377Y-94272910D01*
X106107555Y-94262837D01*
X106108986Y-94251962D01*
X106106775Y-94237778D01*
X106093617Y-94234000D01*
X105047115Y-94234000D01*
X105031876Y-94238475D01*
X105030671Y-94239865D01*
X105029000Y-94247548D01*
X105029000Y-95298517D01*
X104521000Y-95298517D01*
X104521000Y-94252115D01*
X104516525Y-94236876D01*
X104515135Y-94235671D01*
X104507452Y-94234000D01*
X103458225Y-94234000D01*
X103444694Y-94237973D01*
X103443257Y-94247966D01*
X83901957Y-94247966D01*
X83900230Y-94242022D01*
X83898018Y-94234407D01*
X83887707Y-94216972D01*
X83879012Y-94199224D01*
X83871552Y-94180383D01*
X83845564Y-94144613D01*
X83839048Y-94134693D01*
X83820580Y-94103465D01*
X83820578Y-94103462D01*
X83816542Y-94096638D01*
X83802221Y-94082317D01*
X83789380Y-94067283D01*
X83782131Y-94057306D01*
X83777472Y-94050893D01*
X83743395Y-94022702D01*
X83734616Y-94014712D01*
X79179122Y-89459217D01*
X79145096Y-89396905D01*
X79142907Y-89383292D01*
X79140129Y-89356855D01*
X79125542Y-89218072D01*
X79066527Y-89036444D01*
X78971040Y-88871056D01*
X78843253Y-88729134D01*
X78688752Y-88616882D01*
X78682724Y-88614198D01*
X78682722Y-88614197D01*
X78520319Y-88541891D01*
X78520318Y-88541891D01*
X78514288Y-88539206D01*
X78420887Y-88519353D01*
X78333944Y-88500872D01*
X78333939Y-88500872D01*
X78327487Y-88499500D01*
X78136513Y-88499500D01*
X78130061Y-88500872D01*
X78130056Y-88500872D01*
X78043113Y-88519353D01*
X77949712Y-88539206D01*
X77943682Y-88541891D01*
X77943681Y-88541891D01*
X77781278Y-88614197D01*
X77781276Y-88614198D01*
X77775248Y-88616882D01*
X77620747Y-88729134D01*
X77492960Y-88871056D01*
X77397473Y-89036444D01*
X77338458Y-89218072D01*
X77318496Y-89408000D01*
X70358000Y-89408000D01*
X70358000Y-69849000D01*
X70378002Y-69780879D01*
X70431658Y-69734386D01*
X70484000Y-69723000D01*
X81154000Y-69723000D01*
X81222121Y-69743002D01*
G37*
%TD.AperFunction*%
%TD*%
M02*
