%TF.GenerationSoftware,KiCad,Pcbnew,(6.0.1-0)*%
%TF.CreationDate,2022-04-20T12:22:31-04:00*%
%TF.ProjectId,32S2_3,33325332-5f33-42e6-9b69-6361645f7063,rev?*%
%TF.SameCoordinates,Original*%
%TF.FileFunction,Copper,L1,Top*%
%TF.FilePolarity,Positive*%
%FSLAX46Y46*%
G04 Gerber Fmt 4.6, Leading zero omitted, Abs format (unit mm)*
G04 Created by KiCad (PCBNEW (6.0.1-0)) date 2022-04-20 12:22:31*
%MOMM*%
%LPD*%
G01*
G04 APERTURE LIST*
G04 Aperture macros list*
%AMRoundRect*
0 Rectangle with rounded corners*
0 $1 Rounding radius*
0 $2 $3 $4 $5 $6 $7 $8 $9 X,Y pos of 4 corners*
0 Add a 4 corners polygon primitive as box body*
4,1,4,$2,$3,$4,$5,$6,$7,$8,$9,$2,$3,0*
0 Add four circle primitives for the rounded corners*
1,1,$1+$1,$2,$3*
1,1,$1+$1,$4,$5*
1,1,$1+$1,$6,$7*
1,1,$1+$1,$8,$9*
0 Add four rect primitives between the rounded corners*
20,1,$1+$1,$2,$3,$4,$5,0*
20,1,$1+$1,$4,$5,$6,$7,0*
20,1,$1+$1,$6,$7,$8,$9,0*
20,1,$1+$1,$8,$9,$2,$3,0*%
G04 Aperture macros list end*
%TA.AperFunction,ComponentPad*%
%ADD10O,1.700000X1.700000*%
%TD*%
%TA.AperFunction,ComponentPad*%
%ADD11R,1.700000X1.700000*%
%TD*%
%TA.AperFunction,SMDPad,CuDef*%
%ADD12RoundRect,0.250000X0.337500X0.475000X-0.337500X0.475000X-0.337500X-0.475000X0.337500X-0.475000X0*%
%TD*%
%TA.AperFunction,SMDPad,CuDef*%
%ADD13RoundRect,0.150000X0.512500X0.150000X-0.512500X0.150000X-0.512500X-0.150000X0.512500X-0.150000X0*%
%TD*%
%TA.AperFunction,SMDPad,CuDef*%
%ADD14RoundRect,0.250000X-0.450000X0.350000X-0.450000X-0.350000X0.450000X-0.350000X0.450000X0.350000X0*%
%TD*%
%TA.AperFunction,SMDPad,CuDef*%
%ADD15RoundRect,0.250000X-0.350000X-0.450000X0.350000X-0.450000X0.350000X0.450000X-0.350000X0.450000X0*%
%TD*%
%TA.AperFunction,SMDPad,CuDef*%
%ADD16RoundRect,0.250000X0.350000X0.450000X-0.350000X0.450000X-0.350000X-0.450000X0.350000X-0.450000X0*%
%TD*%
%TA.AperFunction,SMDPad,CuDef*%
%ADD17R,0.700000X0.510000*%
%TD*%
%TA.AperFunction,SMDPad,CuDef*%
%ADD18RoundRect,0.250000X0.450000X-0.350000X0.450000X0.350000X-0.450000X0.350000X-0.450000X-0.350000X0*%
%TD*%
%TA.AperFunction,SMDPad,CuDef*%
%ADD19R,1.500000X0.900000*%
%TD*%
%TA.AperFunction,SMDPad,CuDef*%
%ADD20R,0.900000X1.500000*%
%TD*%
%TA.AperFunction,SMDPad,CuDef*%
%ADD21R,1.500000X1.100000*%
%TD*%
%TA.AperFunction,SMDPad,CuDef*%
%ADD22RoundRect,0.250000X-0.337500X-0.475000X0.337500X-0.475000X0.337500X0.475000X-0.337500X0.475000X0*%
%TD*%
%TA.AperFunction,SMDPad,CuDef*%
%ADD23RoundRect,0.250000X0.275000X0.350000X-0.275000X0.350000X-0.275000X-0.350000X0.275000X-0.350000X0*%
%TD*%
%TA.AperFunction,ViaPad*%
%ADD24C,0.800000*%
%TD*%
%TA.AperFunction,Conductor*%
%ADD25C,0.250000*%
%TD*%
G04 APERTURE END LIST*
D10*
%TO.P,J1,8,Pin_8*%
%TO.N,GND*%
X104775000Y-93980000D03*
%TO.P,J1,7,Pin_7*%
%TO.N,/U0RXD*%
X104775000Y-91440000D03*
%TO.P,J1,6,Pin_6*%
%TO.N,/U0TXD*%
X104775000Y-88900000D03*
%TO.P,J1,5,Pin_5*%
%TO.N,/GPIO0*%
X104775000Y-86360000D03*
%TO.P,J1,4,Pin_4*%
%TO.N,/CHIP_PU*%
X104775000Y-83820000D03*
%TO.P,J1,3,Pin_3*%
%TO.N,/VCC_3V3*%
X104775000Y-81280000D03*
%TO.P,J1,2,Pin_2*%
%TO.N,/Vtherm*%
X104775000Y-78740000D03*
D11*
%TO.P,J1,1,Pin_1*%
%TO.N,VCC*%
X104775000Y-76200000D03*
%TD*%
D12*
%TO.P,C1,1*%
%TO.N,Net-(C1-Pad1)*%
X76602500Y-72390000D03*
%TO.P,C1,2*%
%TO.N,GND*%
X74527500Y-72390000D03*
%TD*%
D13*
%TO.P,U4,1,Lx*%
%TO.N,Net-(L1-Pad1)*%
X76189000Y-91054000D03*
%TO.P,U4,2,GND*%
%TO.N,GND*%
X76189000Y-90104000D03*
%TO.P,U4,3,CE_Mode*%
%TO.N,Net-(SW1-Pad1A)*%
X76189000Y-89154000D03*
%TO.P,U4,4,Vin*%
%TO.N,VCC*%
X73914000Y-89154000D03*
%TO.P,U4,5,Vout*%
%TO.N,/VCC_3V3*%
X73914000Y-91054000D03*
%TD*%
D14*
%TO.P,R2,1*%
%TO.N,/VCC_3V3*%
X100076000Y-92980000D03*
%TO.P,R2,2*%
%TO.N,Net-(R2-Pad2)*%
X100076000Y-94980000D03*
%TD*%
D12*
%TO.P,C6,1*%
%TO.N,/CHIP_PU*%
X76602500Y-78740000D03*
%TO.P,C6,2*%
%TO.N,GND*%
X74527500Y-78740000D03*
%TD*%
D15*
%TO.P,R6,1*%
%TO.N,VCC*%
X103156000Y-73025000D03*
%TO.P,R6,2*%
%TO.N,/VBAT*%
X105156000Y-73025000D03*
%TD*%
D16*
%TO.P,R5,1*%
%TO.N,/CHIP_PU*%
X76565000Y-81915000D03*
%TO.P,R5,2*%
%TO.N,VCC*%
X74565000Y-81915000D03*
%TD*%
D17*
%TO.P,U1,1,A0*%
%TO.N,GND*%
X94852000Y-98618000D03*
%TO.P,U1,2,GND*%
X94852000Y-99568000D03*
%TO.P,U1,3,Vcc*%
%TO.N,/VCC_3V3*%
X94852000Y-100518000D03*
%TO.P,U1,4,SCL*%
%TO.N,/SCL*%
X97172000Y-100518000D03*
%TO.P,U1,5,OS*%
%TO.N,Net-(R2-Pad2)*%
X97172000Y-99568000D03*
%TO.P,U1,6,SDA*%
%TO.N,/SDA*%
X97172000Y-98618000D03*
%TD*%
D12*
%TO.P,C2,1*%
%TO.N,Net-(C1-Pad1)*%
X76602500Y-75565000D03*
%TO.P,C2,2*%
%TO.N,GND*%
X74527500Y-75565000D03*
%TD*%
D18*
%TO.P,U2,1*%
%TO.N,/VCC_3V3*%
X88392000Y-94980000D03*
%TO.P,U2,2*%
%TO.N,/Vtherm*%
X88392000Y-92980000D03*
%TD*%
D16*
%TO.P,R7,1*%
%TO.N,/VBAT*%
X105156000Y-71120000D03*
%TO.P,R7,2*%
%TO.N,GND*%
X103156000Y-71120000D03*
%TD*%
D19*
%TO.P,U3,1,GND*%
%TO.N,GND*%
X83200000Y-72582500D03*
%TO.P,U3,2,3V3*%
%TO.N,Net-(C1-Pad1)*%
X83200000Y-73852500D03*
%TO.P,U3,3,EN*%
%TO.N,/CHIP_PU*%
X83200000Y-75122500D03*
%TO.P,U3,4,IO4*%
%TO.N,unconnected-(U3-Pad4)*%
X83200000Y-76392500D03*
%TO.P,U3,5,IO5*%
%TO.N,/Vtherm*%
X83200000Y-77662500D03*
%TO.P,U3,6,IO6*%
%TO.N,/VBAT*%
X83200000Y-78932500D03*
%TO.P,U3,7,IO7*%
%TO.N,unconnected-(U3-Pad7)*%
X83200000Y-80202500D03*
%TO.P,U3,8,IO15*%
%TO.N,unconnected-(U3-Pad8)*%
X83200000Y-81472500D03*
%TO.P,U3,9,IO16*%
%TO.N,unconnected-(U3-Pad9)*%
X83200000Y-82742500D03*
%TO.P,U3,10,IO17*%
%TO.N,unconnected-(U3-Pad10)*%
X83200000Y-84012500D03*
%TO.P,U3,11,IO18*%
%TO.N,unconnected-(U3-Pad11)*%
X83200000Y-85282500D03*
%TO.P,U3,12,IO8*%
%TO.N,unconnected-(U3-Pad12)*%
X83200000Y-86552500D03*
%TO.P,U3,13,IO19*%
%TO.N,unconnected-(U3-Pad13)*%
X83200000Y-87822500D03*
%TO.P,U3,14,IO20*%
%TO.N,unconnected-(U3-Pad14)*%
X83200000Y-89092500D03*
D20*
%TO.P,U3,15,IO3*%
%TO.N,unconnected-(U3-Pad15)*%
X84965000Y-90592500D03*
%TO.P,U3,16,IO46*%
%TO.N,unconnected-(U3-Pad16)*%
X86235000Y-90592500D03*
%TO.P,U3,17,IO9*%
%TO.N,unconnected-(U3-Pad17)*%
X87505000Y-90592500D03*
%TO.P,U3,18,IO10*%
%TO.N,unconnected-(U3-Pad18)*%
X88775000Y-90592500D03*
%TO.P,U3,19,IO11*%
%TO.N,unconnected-(U3-Pad19)*%
X90045000Y-90592500D03*
%TO.P,U3,20,IO12*%
%TO.N,unconnected-(U3-Pad20)*%
X91315000Y-90592500D03*
%TO.P,U3,21,IO13*%
%TO.N,unconnected-(U3-Pad21)*%
X92585000Y-90592500D03*
%TO.P,U3,22,IO14*%
%TO.N,unconnected-(U3-Pad22)*%
X93855000Y-90592500D03*
%TO.P,U3,23,IO21*%
%TO.N,unconnected-(U3-Pad23)*%
X95125000Y-90592500D03*
%TO.P,U3,24,IO33*%
%TO.N,/SCL*%
X96395000Y-90616500D03*
%TO.P,U3,25,IO34*%
%TO.N,/SDA*%
X97665000Y-90592500D03*
%TO.P,U3,26,IO45*%
%TO.N,unconnected-(U3-Pad26)*%
X98935000Y-90592500D03*
D19*
%TO.P,U3,27,IO0*%
%TO.N,/GPIO0*%
X100700000Y-89092500D03*
%TO.P,U3,28,IO35*%
%TO.N,unconnected-(U3-Pad28)*%
X100700000Y-87822500D03*
%TO.P,U3,29,IO36*%
%TO.N,unconnected-(U3-Pad29)*%
X100700000Y-86552500D03*
%TO.P,U3,30,IO37*%
%TO.N,unconnected-(U3-Pad30)*%
X100700000Y-85282500D03*
%TO.P,U3,31,IO38*%
%TO.N,unconnected-(U3-Pad31)*%
X100700000Y-84012500D03*
%TO.P,U3,32,IO39*%
%TO.N,unconnected-(U3-Pad32)*%
X100700000Y-82742500D03*
%TO.P,U3,33,IO40*%
%TO.N,unconnected-(U3-Pad33)*%
X100700000Y-81472500D03*
%TO.P,U3,34,IO41*%
%TO.N,unconnected-(U3-Pad34)*%
X100700000Y-80202500D03*
%TO.P,U3,35,IO42*%
%TO.N,unconnected-(U3-Pad35)*%
X100700000Y-78932500D03*
%TO.P,U3,36,RXD0*%
%TO.N,/U0RXD*%
X100700000Y-77662500D03*
%TO.P,U3,37,TXD0*%
%TO.N,/U0TXD*%
X100700000Y-76392500D03*
%TO.P,U3,38,IO2*%
%TO.N,unconnected-(U3-Pad38)*%
X100700000Y-75122500D03*
%TO.P,U3,39,IO1*%
%TO.N,unconnected-(U3-Pad39)*%
X100700000Y-73852500D03*
%TO.P,U3,40,GND*%
%TO.N,unconnected-(U3-Pad40)*%
X100700000Y-72582500D03*
%TD*%
D18*
%TO.P,R3,1*%
%TO.N,/VCC_3V3*%
X92456000Y-94980000D03*
%TO.P,R3,2*%
%TO.N,/SCL*%
X92456000Y-92980000D03*
%TD*%
D21*
%TO.P,SW1,1A*%
%TO.N,Net-(SW1-Pad1A)*%
X80650000Y-101092000D03*
%TO.P,SW1,1B*%
%TO.N,/VCC_3V3*%
X71750000Y-101092000D03*
%TD*%
D14*
%TO.P,R4,1*%
%TO.N,/Vtherm*%
X85344000Y-92980000D03*
%TO.P,R4,2*%
%TO.N,GND*%
X85344000Y-94980000D03*
%TD*%
D12*
%TO.P,C3,1*%
%TO.N,GND*%
X76602500Y-93345000D03*
%TO.P,C3,2*%
%TO.N,/VCC_3V3*%
X74527500Y-93345000D03*
%TD*%
D18*
%TO.P,R1,2*%
%TO.N,/SDA*%
X96520000Y-92980000D03*
%TO.P,R1,1*%
%TO.N,/VCC_3V3*%
X96520000Y-94980000D03*
%TD*%
D22*
%TO.P,C4,1*%
%TO.N,VCC*%
X74527500Y-86995000D03*
%TO.P,C4,2*%
%TO.N,GND*%
X76602500Y-86995000D03*
%TD*%
D23*
%TO.P,L1,1,1*%
%TO.N,Net-(L1-Pad1)*%
X76715000Y-84455000D03*
%TO.P,L1,2,2*%
%TO.N,VCC*%
X74415000Y-84455000D03*
%TD*%
D24*
%TO.N,/GPIO0*%
X101600000Y-90805000D03*
%TO.N,/Vtherm*%
X80010000Y-80010000D03*
%TO.N,GND*%
X77978000Y-91186000D03*
X107315000Y-70485000D03*
X80010000Y-93218000D03*
X80010000Y-72390000D03*
X78486000Y-87630000D03*
X85344000Y-96520000D03*
X72390000Y-75565000D03*
X93472000Y-98552000D03*
%TO.N,VCC*%
X73025000Y-81915000D03*
%TO.N,/CHIP_PU*%
X78740000Y-82550000D03*
%TO.N,/VBAT*%
X96520000Y-75184000D03*
X106680000Y-72136000D03*
%TO.N,Net-(SW1-Pad1A)*%
X78232000Y-89408000D03*
X83312000Y-100584000D03*
%TD*%
D25*
%TO.N,/VCC_3V3*%
X107315000Y-83820000D02*
X107315000Y-96520000D01*
X104775000Y-81280000D02*
X107315000Y-83820000D01*
X101600000Y-92996000D02*
X101600000Y-97790000D01*
X101600000Y-97790000D02*
X101600000Y-98552000D01*
X107315000Y-96520000D02*
X106045000Y-97790000D01*
X106045000Y-97790000D02*
X101600000Y-97790000D01*
%TO.N,/GPIO0*%
X101600000Y-90805000D02*
X101600000Y-89992500D01*
X101600000Y-89992500D02*
X100700000Y-89092500D01*
%TO.N,/U0RXD*%
X104775000Y-91440000D02*
X102235000Y-88900000D01*
X102235000Y-88900000D02*
X102235000Y-78105000D01*
X102235000Y-78105000D02*
X101792500Y-77662500D01*
X101792500Y-77662500D02*
X100700000Y-77662500D01*
%TO.N,/U0TXD*%
X100700000Y-76392500D02*
X102427500Y-76392500D01*
X102427500Y-76392500D02*
X102870000Y-76835000D01*
X103505000Y-88900000D02*
X104775000Y-88900000D01*
X102870000Y-76835000D02*
X102870000Y-88265000D01*
X102870000Y-88265000D02*
X103505000Y-88900000D01*
%TO.N,VCC*%
X104775000Y-76200000D02*
X104775000Y-74644000D01*
X104775000Y-74644000D02*
X103156000Y-73025000D01*
%TO.N,Net-(C1-Pad1)*%
X83200000Y-73852500D02*
X78065000Y-73852500D01*
X76602500Y-75565000D02*
X76602500Y-72390000D01*
X78065000Y-73852500D02*
X76602500Y-72390000D01*
%TO.N,GND*%
X80202500Y-72582500D02*
X80010000Y-72390000D01*
X77150000Y-90104000D02*
X77978000Y-90932000D01*
X83200000Y-72582500D02*
X83192980Y-72575480D01*
X76602500Y-86995000D02*
X76340480Y-86732980D01*
X74527500Y-75565000D02*
X72390000Y-75565000D01*
X74527500Y-72390000D02*
X74527500Y-75565000D01*
X93472000Y-98552000D02*
X93538000Y-98618000D01*
X103156000Y-71120000D02*
X104180520Y-70095480D01*
X104180520Y-70095480D02*
X106925480Y-70095480D01*
X77851000Y-86995000D02*
X78486000Y-87630000D01*
X79883000Y-93345000D02*
X80010000Y-93218000D01*
X76602500Y-93345000D02*
X79883000Y-93345000D01*
X76200000Y-92942500D02*
X76602500Y-93345000D01*
X76602500Y-86995000D02*
X77851000Y-86995000D01*
X76602500Y-93345000D02*
X76602500Y-92815500D01*
X83200000Y-72582500D02*
X80202500Y-72582500D01*
X94852000Y-99568000D02*
X94852000Y-98618000D01*
X76189000Y-90104000D02*
X77150000Y-90104000D01*
X93538000Y-98618000D02*
X94852000Y-98618000D01*
X74527500Y-78740000D02*
X74527500Y-75565000D01*
X106925480Y-70095480D02*
X107315000Y-70485000D01*
X77978000Y-90932000D02*
X77978000Y-91186000D01*
X85344000Y-94980000D02*
X85344000Y-96520000D01*
%TO.N,/VCC_3V3*%
X74527500Y-94847500D02*
X74527500Y-96557500D01*
X98552000Y-101600000D02*
X95934000Y-101600000D01*
X87467480Y-94055480D02*
X88392000Y-94980000D01*
X100076000Y-92980000D02*
X101616000Y-92980000D01*
X78337500Y-94847500D02*
X74527500Y-94847500D01*
X74527500Y-96557500D02*
X71750000Y-99335000D01*
X101600000Y-98552000D02*
X98552000Y-101600000D01*
X92456000Y-94980000D02*
X92456000Y-99060000D01*
X73914000Y-91054000D02*
X73914000Y-92731500D01*
X71750000Y-99335000D02*
X71750000Y-101092000D01*
X78337500Y-94847500D02*
X79129520Y-94055480D01*
X87467480Y-94055480D02*
X91531480Y-94055480D01*
X100076000Y-92980000D02*
X98520000Y-92980000D01*
X98520000Y-92980000D02*
X96520000Y-94980000D01*
X91531480Y-94055480D02*
X92456000Y-94980000D01*
X92456000Y-99060000D02*
X93914000Y-100518000D01*
X101616000Y-92980000D02*
X101600000Y-92996000D01*
X93914000Y-100518000D02*
X94852000Y-100518000D01*
X73914000Y-92731500D02*
X74527500Y-93345000D01*
X74527500Y-93345000D02*
X74527500Y-94847500D01*
X79129520Y-94055480D02*
X87467480Y-94055480D01*
X95934000Y-101600000D02*
X94852000Y-100518000D01*
%TO.N,VCC*%
X73025000Y-81915000D02*
X74565000Y-81915000D01*
X73914000Y-87608500D02*
X74527500Y-86995000D01*
X74527500Y-84567500D02*
X74415000Y-84455000D01*
X73914000Y-89154000D02*
X73914000Y-87608500D01*
X74565000Y-81915000D02*
X74565000Y-84305000D01*
X102923622Y-73257378D02*
X103156000Y-73025000D01*
X74527500Y-86995000D02*
X74527500Y-84567500D01*
X74527500Y-86995000D02*
X74614520Y-87082020D01*
X74565000Y-84305000D02*
X74415000Y-84455000D01*
%TO.N,/CHIP_PU*%
X83200000Y-75122500D02*
X80220000Y-75122500D01*
X76835000Y-82185000D02*
X76565000Y-81915000D01*
X76565000Y-81915000D02*
X78105000Y-81915000D01*
X80220000Y-75122500D02*
X76602500Y-78740000D01*
X78105000Y-81915000D02*
X78740000Y-82550000D01*
X76602500Y-81877500D02*
X76565000Y-81915000D01*
X76602500Y-78740000D02*
X76602500Y-81877500D01*
%TO.N,/Vtherm*%
X88392000Y-92964000D02*
X87503000Y-92075000D01*
X80010000Y-80010000D02*
X80010000Y-88265000D01*
X82357500Y-77662500D02*
X80010000Y-80010000D01*
X83820000Y-92075000D02*
X84455000Y-92075000D01*
X83200000Y-77662500D02*
X82357500Y-77662500D01*
X85344000Y-92980000D02*
X85344000Y-92964000D01*
X80010000Y-88265000D02*
X83820000Y-92075000D01*
X87503000Y-92075000D02*
X84455000Y-92075000D01*
X85344000Y-92964000D02*
X84455000Y-92075000D01*
X88392000Y-92980000D02*
X88392000Y-92964000D01*
%TO.N,/GPIO0*%
X101162114Y-89092500D02*
X100700000Y-89092500D01*
%TO.N,Net-(L1-Pad1)*%
X76715000Y-84455000D02*
X76835000Y-84455000D01*
X77337000Y-92202000D02*
X76189000Y-91054000D01*
X79560480Y-87180480D02*
X79560480Y-92143520D01*
X76835000Y-84455000D02*
X79560480Y-87180480D01*
X79502000Y-92202000D02*
X77337000Y-92202000D01*
X79560480Y-92143520D02*
X79502000Y-92202000D01*
%TO.N,/SCL*%
X96395000Y-90616500D02*
X96395000Y-91616500D01*
X95024022Y-97536000D02*
X95526511Y-98038489D01*
X92456000Y-92980000D02*
X92472000Y-92980000D01*
X93380520Y-92055480D02*
X92456000Y-92980000D01*
X93980000Y-94504000D02*
X93980000Y-97028000D01*
X94488000Y-97536000D02*
X95024022Y-97536000D01*
X96395000Y-91616500D02*
X95956020Y-92055480D01*
X93980000Y-97028000D02*
X94488000Y-97536000D01*
X95526511Y-98038489D02*
X95526511Y-100076000D01*
X95956020Y-92055480D02*
X93380520Y-92055480D01*
X92456000Y-92980000D02*
X93980000Y-94504000D01*
X95968511Y-100518000D02*
X97172000Y-100518000D01*
X95526511Y-100076000D02*
X95968511Y-100518000D01*
%TO.N,/SDA*%
X97665000Y-91835000D02*
X96520000Y-92980000D01*
X94996000Y-96520000D02*
X97094000Y-98618000D01*
X97665000Y-90592500D02*
X97665000Y-91835000D01*
X97094000Y-98618000D02*
X97172000Y-98618000D01*
X94996000Y-94504000D02*
X94996000Y-96520000D01*
X96520000Y-92980000D02*
X94996000Y-94504000D01*
%TO.N,Net-(R2-Pad2)*%
X98044000Y-99568000D02*
X97172000Y-99568000D01*
X100076000Y-97536000D02*
X98044000Y-99568000D01*
X100076000Y-94980000D02*
X100076000Y-97536000D01*
%TO.N,/VBAT*%
X87527522Y-75184000D02*
X83779022Y-78932500D01*
X105156000Y-73025000D02*
X105791000Y-73025000D01*
X105156000Y-71120000D02*
X105664000Y-71120000D01*
X105791000Y-73025000D02*
X106680000Y-72136000D01*
X105664000Y-71120000D02*
X106680000Y-72136000D01*
X83779022Y-78932500D02*
X83200000Y-78932500D01*
X96520000Y-75184000D02*
X87527522Y-75184000D01*
%TO.N,Net-(SW1-Pad1A)*%
X82804000Y-101092000D02*
X80650000Y-101092000D01*
X77978000Y-89154000D02*
X78232000Y-89408000D01*
X83312000Y-100584000D02*
X82804000Y-101092000D01*
X76189000Y-89154000D02*
X77978000Y-89154000D01*
%TD*%
M02*
